<svg id="Layer_1" data-name="Layer 1" xmlns="http://www.w3.org/2000/svg" xmlns:xlink="http://www.w3.org/1999/xlink" viewBox="0 0 512 512"><defs><pattern id="USGS_8_Sewage_Disposal" data-name="USGS 8 Sewage Disposal" width="72" height="74.8" patternTransform="translate(-279.65 869) scale(2.71 2.71)" patternUnits="userSpaceOnUse" viewBox="0 0 72 74.8"><rect width="72" height="74.8" fill="none"/><line y1="73.95" x2="72" y2="73.95" fill="none" stroke="#1f191a" stroke-linecap="square" stroke-width="0.3"/><line y1="72.25" x2="72" y2="72.25" fill="none" stroke="#1f191a" stroke-linecap="square" stroke-width="0.3"/><line y1="70.55" x2="72" y2="70.55" fill="none" stroke="#1f191a" stroke-linecap="square" stroke-width="0.3"/><line y1="68.85" x2="72" y2="68.85" fill="none" stroke="#1f191a" stroke-linecap="square" stroke-width="0.3"/><line y1="67.15" x2="72" y2="67.15" fill="none" stroke="#1f191a" stroke-linecap="square" stroke-width="0.3"/><line y1="65.45" x2="72" y2="65.45" fill="none" stroke="#1f191a" stroke-linecap="square" stroke-width="0.3"/><line y1="63.75" x2="72" y2="63.75" fill="none" stroke="#1f191a" stroke-linecap="square" stroke-width="0.3"/><line y1="62.05" x2="72" y2="62.05" fill="none" stroke="#1f191a" stroke-linecap="square" stroke-width="0.3"/><line y1="60.35" x2="72" y2="60.35" fill="none" stroke="#1f191a" stroke-linecap="square" stroke-width="0.3"/><line y1="58.65" x2="72" y2="58.65" fill="none" stroke="#1f191a" stroke-linecap="square" stroke-width="0.3"/><line y1="56.95" x2="72" y2="56.95" fill="none" stroke="#1f191a" stroke-linecap="square" stroke-width="0.3"/><line y1="55.25" x2="72" y2="55.25" fill="none" stroke="#1f191a" stroke-linecap="square" stroke-width="0.3"/><line y1="53.55" x2="72" y2="53.55" fill="none" stroke="#1f191a" stroke-linecap="square" stroke-width="0.3"/><line y1="51.85" x2="72" y2="51.85" fill="none" stroke="#1f191a" stroke-linecap="square" stroke-width="0.3"/><line y1="50.15" x2="72" y2="50.15" fill="none" stroke="#1f191a" stroke-linecap="square" stroke-width="0.3"/><line y1="48.45" x2="72" y2="48.45" fill="none" stroke="#1f191a" stroke-linecap="square" stroke-width="0.3"/><line y1="46.75" x2="72" y2="46.75" fill="none" stroke="#1f191a" stroke-linecap="square" stroke-width="0.3"/><line y1="45.05" x2="72" y2="45.05" fill="none" stroke="#1f191a" stroke-linecap="square" stroke-width="0.3"/><line y1="43.35" x2="72" y2="43.35" fill="none" stroke="#1f191a" stroke-linecap="square" stroke-width="0.3"/><line y1="41.65" x2="72" y2="41.65" fill="none" stroke="#1f191a" stroke-linecap="square" stroke-width="0.3"/><line y1="39.95" x2="72" y2="39.95" fill="none" stroke="#1f191a" stroke-linecap="square" stroke-width="0.3"/><line y1="38.25" x2="72" y2="38.25" fill="none" stroke="#1f191a" stroke-linecap="square" stroke-width="0.3"/><line y1="36.55" x2="72" y2="36.55" fill="none" stroke="#1f191a" stroke-linecap="square" stroke-width="0.3"/><line y1="34.85" x2="72" y2="34.85" fill="none" stroke="#1f191a" stroke-linecap="square" stroke-width="0.3"/><line y1="33.15" x2="72" y2="33.15" fill="none" stroke="#1f191a" stroke-linecap="square" stroke-width="0.3"/><line y1="31.45" x2="72" y2="31.45" fill="none" stroke="#1f191a" stroke-linecap="square" stroke-width="0.3"/><line y1="29.75" x2="72" y2="29.75" fill="none" stroke="#1f191a" stroke-linecap="square" stroke-width="0.3"/><line y1="28.05" x2="72" y2="28.05" fill="none" stroke="#1f191a" stroke-linecap="square" stroke-width="0.3"/><line y1="26.35" x2="72" y2="26.35" fill="none" stroke="#1f191a" stroke-linecap="square" stroke-width="0.3"/><line y1="24.65" x2="72" y2="24.65" fill="none" stroke="#1f191a" stroke-linecap="square" stroke-width="0.3"/><line y1="22.95" x2="72" y2="22.95" fill="none" stroke="#1f191a" stroke-linecap="square" stroke-width="0.3"/><line y1="21.25" x2="72" y2="21.25" fill="none" stroke="#1f191a" stroke-linecap="square" stroke-width="0.3"/><line y1="19.55" x2="72" y2="19.55" fill="none" stroke="#1f191a" stroke-linecap="square" stroke-width="0.3"/><line y1="17.85" x2="72" y2="17.85" fill="none" stroke="#1f191a" stroke-linecap="square" stroke-width="0.3"/><line y1="16.15" x2="72" y2="16.15" fill="none" stroke="#1f191a" stroke-linecap="square" stroke-width="0.3"/><line y1="14.45" x2="72" y2="14.45" fill="none" stroke="#1f191a" stroke-linecap="square" stroke-width="0.3"/><line y1="12.75" x2="72" y2="12.75" fill="none" stroke="#1f191a" stroke-linecap="square" stroke-width="0.3"/><line y1="11.05" x2="72" y2="11.05" fill="none" stroke="#1f191a" stroke-linecap="square" stroke-width="0.3"/><line y1="9.35" x2="72" y2="9.35" fill="none" stroke="#1f191a" stroke-linecap="square" stroke-width="0.3"/><line y1="7.65" x2="72" y2="7.65" fill="none" stroke="#1f191a" stroke-linecap="square" stroke-width="0.3"/><line y1="5.95" x2="72" y2="5.95" fill="none" stroke="#1f191a" stroke-linecap="square" stroke-width="0.3"/><line y1="4.25" x2="72" y2="4.25" fill="none" stroke="#1f191a" stroke-linecap="square" stroke-width="0.3"/><line y1="2.55" x2="72" y2="2.55" fill="none" stroke="#1f191a" stroke-linecap="square" stroke-width="0.3"/><line y1="0.85" x2="72" y2="0.85" fill="none" stroke="#1f191a" stroke-linecap="square" stroke-width="0.3"/><line x1="-21.5" y1="7.65" x2="-10.25" y2="7.65" fill="none" stroke="#1f191a" stroke-linecap="square" stroke-width="0.3"/></pattern></defs><title>google-plus-other</title><path d="M512,281.47c0,126.26-102.29,228.77-228.43,228.77S55.13,407.72,55.13,281.47,157.55,52.69,283.57,52.69,512,155.21,512,281.47Z" fill="url(#USGS_8_Sewage_Disposal)"/><path d="M495,264.49c0,126.26-102.29,228.77-228.43,228.77S38.16,390.75,38.16,264.49,140.59,35.72,266.61,35.72,495,138.23,495,264.49Z" fill="url(#USGS_8_Sewage_Disposal)"/><path d="M469.6,245.39c0,126.26-102.29,228.77-228.43,228.77S12.72,371.65,12.72,245.39,115.14,16.62,241.17,16.62,469.6,119.13,469.6,245.39Z" fill="#1f191a"/><path d="M463.24,234.78c0,126.26-102.29,228.77-228.43,228.77S6.36,361,6.36,234.78,108.78,6,234.8,6,463.24,108.52,463.24,234.78Z" fill="#333"/><path d="M469.6,245.39c0,126.26-102.29,228.77-228.43,228.77S12.72,371.65,12.72,245.39,115.14,16.62,241.17,16.62,469.6,119.13,469.6,245.39Z" fill="none" stroke="#1f191a" stroke-width="2.12"/><path d="M459,232.66c0,126.26-102.29,228.77-228.43,228.77S2.12,358.91,2.12,232.66,104.54,3.88,230.56,3.88,459,106.4,459,232.66Z" fill="#fff"/><path d="M459,232.66c0,126.26-102.29,228.77-228.43,228.77S2.12,358.91,2.12,232.66,104.54,3.88,230.56,3.88,459,106.4,459,232.66Z" fill="#fff"/><path d="M459,232.66c0,126.26-102.29,228.77-228.43,228.77S2.12,358.91,2.12,232.66,104.54,3.88,230.56,3.88,459,106.4,459,232.66Z" fill="none" stroke="#1f191a" stroke-width="4.24"/><path d="M242.35,253.31c-5.49-5.08-11.67-9.62-17.42-14.27-7.29-6.45-8-13.11-1.74-20.09,3.43-4.33,7.87-7.5,11.83-11,16.21-14.9,19-37.21,6.81-55.29-2.85-3.8-6.44-7.39-10.93-12.36,12.36,1.37,22.07-1,30.89-9.09H201.64a74.28,74.28,0,0,0-29.3,7c-27.24,12.79-37.22,44.71-21.07,67.65,9.4,13.75,23.23,18.39,39,18,1.85,0,6.55-2.53,4.86,3.28-2.8,9.2.26,17,7,25.48h-7.34c-17.85,2.11-35.64,4.64-50.27,16.28-20.64,16.59-19,43.86,3.43,57.6,24.5,15.33,71.54,11.31,93.35-7.4C263.57,299.6,264.1,273.07,242.35,253.31Zm-63.57-48.62a58.1,58.1,0,0,1-11.46-42.07c1.11-10.56,6.6-18,16.68-21.56,10.19-3.17,19.11-.31,26.29,7.08,10.67,11.31,14.41,25.48,15.36,37.42.16,16.81-5.07,25.26-16.53,29.07C198,219,186.49,215.36,178.78,204.69Zm61.46,94.17C239.07,309.22,233,316,224,320.22a51.59,51.59,0,0,1-24.23,4.55c-11.83-.75-23.34-2.54-33.42-9.62C147.57,302,149.37,277,169.75,267.06c12-6.34,25-7.83,38.23-7.09C222.18,260.71,241.71,284.81,240.23,298.87Z" fill="#434040" fill-rule="evenodd"/><path d="M290.08,195.18V170.76H265.53V153.86h24.55V129.44h16.26v24.42H331.1v16.91H306.34v24.42Z" fill="#434040"/></svg>